<svg class="icon" width="200" height="200" viewBox="0 0 1024 1024" xmlns="http://www.w3.org/2000/svg"><path fill="#fff" d="M510.625 1023.932a100.365 100.365 0 01-53.386-17.084A492.213 492.213 0 0087.812 933.71a53.385 53.385 0 01-64.596-53.385V53.385A53.385 53.385 0 0174.466 0h150.547a568.554 568.554 0 01134.531 16.016 53.385 53.385 0 11-28.828 103.033 468.19 468.19 0 00-119.05-12.278h-83.815V820a596.849 596.849 0 01382.774 96.093A596.849 596.849 0 01893.398 820V109.44a491.146 491.146 0 00-326.719 79.544v517.838a53.385 53.385 0 11-106.77 0V163.893a53.385 53.385 0 0120.82-42.708 599.518 599.518 0 01480.468-106.77 53.385 53.385 0 0141.64 53.384v813.594a53.385 53.385 0 01-64.595 53.385 492.213 492.213 0 00-369.427 73.138 100.365 100.365 0 01-58.19 16.016z"/></svg>